<?xml version="1.0" encoding="UTF-8"?>
<svg xmlns="http://www.w3.org/2000/svg" xmlns:xlink="http://www.w3.org/1999/xlink" width="612pt" height="265.7pt" viewBox="0 0 612 265.7" version="1.1">
<defs>
<clipPath id="clip1">
  <path d="M 0 218 L 612 218 L 612 265.699219 L 0 265.699219 Z M 0 218 "/>
</clipPath>
</defs>
<g id="surface1">
<path style=" stroke:none;fill-rule:evenodd;fill:rgb(0%,0.784302%,0%);fill-opacity:1;" d="M 110.714844 2.644531 L 143 2.644531 L 143 178.65625 C 149.492188 190.839844 163.875 188.285156 167.734375 180.464844 L 204.808594 128.578125 L 205 16.789063 C 201.785156 16.074219 191.484375 11.945313 192.910156 4.226563 L 230.109375 4.226563 L 230.109375 184.003906 L 267.453125 183.621094 L 311.816406 142.621094 L 315.816406 145.898438 L 278.089844 195.796875 L 194.046875 194.867188 L 204.71875 183.203125 L 204.789063 139.902344 L 163.214844 193.867188 L 103.789063 194.082031 L 117.609375 181.09375 L 117.738281 106.421875 L 109.597656 117.839844 C 109.597656 117.839844 75.21875 161.339844 62.359375 170.691406 C 49.496094 180.042969 30.320313 198.753906 -0.0820313 197.589844 C -30.484375 196.414063 -55.039063 183.320313 -62.289063 174.667969 C -69.539063 166.011719 -70.238281 124.386719 -70.238281 124.386719 C -70.238281 124.386719 -66.1875 123.476563 -63.789063 125.175781 C -61.390625 126.878906 -60.511719 132.148438 -59.867188 133.730469 C -59.226563 135.3125 -48.957031 167.417969 -20.894531 179.582031 C 7.167969 191.738281 35.230469 178.878906 47.390625 155.488281 C 59.550781 132.105469 48.328125 114.566406 35.699219 108.71875 C 6.800781 95.339844 -43.859375 87.421875 -57.023438 53.914063 C -57.023438 53.914063 -72 23.117188 -33.625 8.140625 C -12.640625 -0.046875 28.335938 1.597656 42.804688 19.589844 C 44.386719 21.929688 57.773438 45.402344 57.773438 45.402344 C 58.617188 46.746094 60.867188 53.285156 53.523438 53.054688 C 51.832031 53.003906 50.761719 51.035156 49.878906 49.683594 C 47.199219 45.570313 37.796875 35.261719 32.625 30.109375 C 26.914063 24.421875 5.894531 17.511719 -17.007813 19.796875 C -34.71875 21.5625 -51.53125 38.441406 -30.132813 52.539063 C -13.363281 63.589844 4.578125 67.128906 21.820313 73.644531 C 54.230469 85.898438 79.394531 100.761719 71.554688 140.816406 L 75.992188 143.269531 L 117.761719 91.683594 L 117.894531 15.214844 C 114.679688 14.496094 109.289063 10.367188 110.714844 2.644531 Z M 680.875 75.109375 L 680.875 184.066406 L 689.46875 191.203125 C 689.46875 191.203125 692.128906 194.214844 687.859375 194.769531 C 683.585938 195.332031 647.878906 194.769531 647.878906 194.769531 C 647.878906 194.769531 645.5 192.953125 647.320313 190.777344 C 647.320313 190.777344 653.96875 185.246094 654.53125 184.6875 C 655.089844 184.128906 655.441406 183.007813 655.441406 183.007813 L 655.441406 89.546875 L 613.515625 16.921875 C 613.515625 16.921875 604.160156 14.050781 599.109375 7.878906 C 599.109375 7.878906 597.46875 6.007813 599.21875 4.746094 L 636.394531 4.746094 L 675.160156 67.933594 L 715.570313 21.066406 C 715.570313 21.066406 719.15625 17.214844 717.195313 14.96875 C 717.195313 14.96875 707.953125 14.410156 707.671875 7.617188 L 707.8125 5.867188 L 738.128906 5.867188 C 738.128906 5.867188 741.417969 6.425781 738.6875 11.753906 Z M 315.535156 4.53125 L 356.054688 4.53125 L 356.054688 93.410156 L 419.664063 16.730469 C 419.664063 16.730469 413.390625 8.964844 416.425781 4.992188 L 440.601563 4.992188 C 440.601563 4.992188 442.890625 15.277344 430.578125 15.015625 L 370.101563 91.640625 L 434.375 178.402344 L 476.964844 125.046875 L 476.964844 14.339844 C 476.964844 14.339844 468.628906 12.003906 469.332031 4.992188 L 577.3125 4.992188 L 591.8125 40.898438 L 588.890625 43.824219 L 552.523438 11.433594 L 501.308594 11.433594 L 501.308594 99.597656 L 534.050781 66.859375 L 552.523438 66.859375 C 552.523438 66.859375 554.628906 71.769531 548.78125 75.046875 C 542.9375 78.316406 540.128906 74.808594 533.347656 81.824219 L 502.710938 112.464844 L 502.710938 187.765625 L 548.746094 187.765625 L 595.320313 143.328125 C 595.320313 143.328125 597.441406 140.878906 599.371094 142.050781 C 601.300781 143.222656 601.066406 146.621094 599.195313 148.613281 L 560.308594 195.472656 L 469.738281 195.472656 C 469.738281 195.472656 465.53125 189.398438 478.15625 183.554688 L 478.15625 138.421875 L 437.234375 187.761719 C 437.234375 187.761719 422.96875 203.898438 408.46875 186.128906 C 393.96875 168.351563 356.785156 115.96875 356.785156 115.96875 L 356.785156 181.214844 C 356.785156 181.214844 355.847656 185.765625 360.648438 186.644531 C 365.445313 187.523438 366.671875 189.632813 366.789063 191.859375 C 366.90625 194.085938 366.789063 194.902344 366.789063 194.902344 L 318.433594 194.902344 C 318.433594 194.902344 314.015625 191.503906 319.28125 188.167969 C 324.546875 184.832031 329.34375 184.53125 329.34375 181.546875 C 329.34375 178.558594 329.34375 17.488281 329.34375 17.488281 C 329.34375 17.488281 316.457031 17.488281 315.535156 4.53125 Z M 315.535156 4.53125 "/>
<g clip-path="url(#clip1)" clip-rule="nonzero">
<path style=" stroke:none;fill-rule:evenodd;fill:rgb(10.594177%,9.812927%,9.423828%);fill-opacity:1;" d="M -67.855469 264.804688 L -67.855469 219.308594 L -53.796875 219.308594 C -50.484375 219.308594 -48.046875 219.59375 -46.480469 220.175781 C -44.316406 220.964844 -42.601563 222.421875 -41.320313 224.550781 C -40.039063 226.679688 -39.402344 229.296875 -39.402344 232.402344 C -39.402344 236.503906 -40.441406 239.847656 -42.539063 242.433594 C -44.625 245.019531 -48.238281 246.308594 -53.363281 246.308594 L -62.917969 246.308594 L -62.917969 264.804688 Z M -62.917969 240.941406 L -53.269531 240.941406 C -50.226563 240.941406 -48.003906 240.253906 -46.59375 238.878906 C -45.1875 237.496094 -44.488281 235.429688 -44.488281 232.65625 C -44.488281 230.855469 -44.835938 229.308594 -45.523438 228.027344 C -46.222656 226.746094 -47.0625 225.867188 -48.046875 225.390625 C -49.019531 224.914063 -50.800781 224.679688 -53.363281 224.679688 L -62.917969 224.679688 Z M 4.125 264.804688 L 4.125 219.308594 L 20.660156 219.308594 C 24.125 219.308594 26.667969 219.734375 28.320313 220.582031 C 29.960938 221.425781 31.304688 222.847656 32.367188 224.816406 C 33.425781 226.796875 33.945313 229.089844 33.945313 231.691406 C 33.945313 235.128906 33.054688 237.910156 31.265625 240.039063 C 29.472656 242.167969 26.867188 243.523438 23.457031 244.105469 C 24.84375 244.933594 25.902344 245.769531 26.625 246.617188 C 28.097656 248.355469 29.390625 250.292969 30.5 252.421875 L 37.015625 264.804688 L 30.808594 264.804688 L 25.851563 255.339844 C 23.921875 251.636719 22.472656 249.136719 21.488281 247.855469 C 20.5 246.578125 19.546875 245.714844 18.636719 245.273438 C 17.714844 244.832031 16.421875 244.605469 14.769531 244.605469 L 9.0625 244.605469 L 9.0625 264.804688 Z M 9.0625 239.394531 L 19.675781 239.394531 C 21.984375 239.394531 23.742188 239.105469 24.949219 238.546875 C 26.148438 237.996094 27.101563 237.117188 27.800781 235.90625 C 28.507813 234.714844 28.859375 233.3125 28.859375 231.722656 C 28.859375 229.425781 28.179688 227.628906 26.835938 226.3125 C 25.5 224.996094 23.5 224.339844 20.851563 224.339844 L 9.0625 224.339844 Z M 77.628906 242.644531 C 77.628906 234.890625 79.335938 228.925781 82.746094 224.753906 C 86.167969 220.589844 90.414063 218.503906 95.511719 218.503906 C 98.792969 218.503906 101.792969 219.4375 104.503906 221.300781 C 107.214844 223.152344 109.367188 225.867188 110.945313 229.414063 C 112.523438 232.964844 113.316406 237.191406 113.316406 242.085938 C 113.316406 248.835938 111.792969 254.332031 108.730469 258.566406 C 105.351563 263.25 100.933594 265.578125 95.480469 265.578125 C 89.972656 265.578125 85.542969 263.183594 82.195313 258.386719 C 79.15625 254.03125 77.628906 248.789063 77.628906 242.644531 Z M 82.726563 242.742188 C 82.726563 248.34375 83.953125 252.703125 86.433594 255.792969 C 88.902344 258.882813 91.910156 260.429688 95.449219 260.429688 C 99.058594 260.429688 102.101563 258.863281 104.558594 255.75 C 107.003906 252.628906 108.234375 248.027344 108.234375 241.96875 C 108.234375 238.058594 107.597656 234.5625 106.335938 231.480469 C 105.363281 229.117188 103.902344 227.230469 101.941406 225.8125 C 99.992188 224.394531 97.851563 223.683594 95.53125 223.683594 C 91.8125 223.683594 88.742188 225.242188 86.335938 228.34375 C 83.921875 231.453125 82.726563 236.246094 82.726563 242.742188 Z M 157.183594 264.804688 L 157.183594 219.308594 L 182.351563 219.308594 L 182.351563 224.679688 L 162.121094 224.679688 L 162.121094 238.769531 L 179.621094 238.769531 L 179.621094 244.136719 L 162.121094 244.136719 L 162.121094 264.804688 Z M 226.039063 264.804688 L 226.039063 219.308594 L 253.007813 219.308594 L 253.007813 224.679688 L 230.964844 224.679688 L 230.964844 238.609375 L 251.609375 238.609375 L 251.609375 243.953125 L 230.964844 243.953125 L 230.964844 259.433594 L 253.875 259.433594 L 253.875 264.804688 Z M 296.28125 250.1875 L 300.929688 249.6875 C 301.1875 252.203125 301.746094 254.148438 302.625 255.535156 C 303.503906 256.933594 304.753906 258.058594 306.398438 258.90625 C 308.027344 259.753906 309.871094 260.175781 311.917969 260.175781 C 314.859375 260.175781 317.140625 259.464844 318.757813 258.027344 C 320.390625 256.585938 321.195313 254.722656 321.195313 252.421875 C 321.195313 251.082031 320.898438 249.902344 320.316406 248.90625 C 319.722656 247.898438 318.832031 247.078125 317.648438 246.4375 C 316.449219 245.792969 313.886719 244.890625 309.933594 243.734375 C 306.417969 242.703125 303.90625 241.648438 302.425781 240.601563 C 300.929688 239.542969 299.777344 238.210938 298.949219 236.578125 C 298.113281 234.957031 297.699219 233.121094 297.699219 231.066406 C 297.699219 227.390625 298.898438 224.382813 301.269531 222.042969 C 303.652344 219.703125 306.863281 218.535156 310.898438 218.535156 C 313.664063 218.535156 316.089844 219.089844 318.175781 220.175781 C 320.253906 221.277344 321.863281 222.847656 323.019531 224.890625 C 324.160156 226.945313 324.777344 229.351563 324.859375 232.128906 L 320.113281 232.5625 C 319.859375 229.605469 318.980469 227.414063 317.457031 225.980469 C 315.941406 224.550781 313.800781 223.84375 311.046875 223.84375 C 308.261719 223.84375 306.121094 224.46875 304.660156 225.71875 C 303.1875 226.96875 302.457031 228.589844 302.457031 230.582031 C 302.457031 232.414063 302.988281 233.84375 304.066406 234.859375 C 305.148438 235.878906 307.5625 236.894531 311.332031 237.929688 C 315.007813 238.953125 317.59375 239.832031 319.085938 240.570313 C 321.363281 241.722656 323.082031 243.253906 324.234375 245.144531 C 325.402344 247.042969 325.972656 249.296875 325.972656 251.925781 C 325.972656 254.53125 325.371094 256.902344 324.152344 259.054688 C 322.921875 261.191406 321.269531 262.8125 319.160156 263.9375 C 317.066406 265.046875 314.53125 265.609375 311.578125 265.609375 C 306.960938 265.609375 303.28125 264.222656 300.539063 261.457031 C 297.808594 258.683594 296.375 254.921875 296.28125 250.1875 Z M 368.292969 250.1875 L 372.941406 249.6875 C 373.199219 252.203125 373.757813 254.148438 374.636719 255.535156 C 375.515625 256.933594 376.765625 258.058594 378.410156 258.90625 C 380.039063 259.753906 381.882813 260.175781 383.929688 260.175781 C 386.871094 260.175781 389.152344 259.464844 390.769531 258.027344 C 392.402344 256.585938 393.207031 254.722656 393.207031 252.421875 C 393.207031 251.082031 392.910156 249.902344 392.328125 248.90625 C 391.734375 247.898438 390.84375 247.078125 389.660156 246.4375 C 388.460938 245.792969 385.898438 244.890625 381.945313 243.734375 C 378.429688 242.703125 375.917969 241.648438 374.4375 240.601563 C 372.941406 239.542969 371.789063 238.210938 370.960938 236.578125 C 370.125 234.957031 369.710938 233.121094 369.710938 231.066406 C 369.710938 227.390625 370.910156 224.382813 373.28125 222.042969 C 375.664063 219.703125 378.875 218.535156 382.910156 218.535156 C 385.675781 218.535156 388.101563 219.089844 390.1875 220.175781 C 392.265625 221.277344 393.875 222.847656 395.03125 224.890625 C 396.171875 226.945313 396.789063 229.351563 396.871094 232.128906 L 392.125 232.5625 C 391.871094 229.605469 390.992188 227.414063 389.46875 225.980469 C 387.953125 224.550781 385.8125 223.84375 383.058594 223.84375 C 380.273438 223.84375 378.132813 224.46875 376.671875 225.71875 C 375.199219 226.96875 374.46875 228.589844 374.46875 230.582031 C 374.46875 232.414063 375 233.84375 376.078125 234.859375 C 377.160156 235.878906 379.574219 236.894531 383.34375 237.929688 C 387.019531 238.953125 389.605469 239.832031 391.097656 240.570313 C 393.375 241.722656 395.09375 243.253906 396.246094 245.144531 C 397.414063 247.042969 397.984375 249.296875 397.984375 251.925781 C 397.984375 254.53125 397.382813 256.902344 396.164063 259.054688 C 394.933594 261.191406 393.28125 262.8125 391.171875 263.9375 C 389.074219 265.046875 386.542969 265.609375 383.589844 265.609375 C 378.96875 265.609375 375.292969 264.222656 372.550781 261.457031 C 369.820313 258.683594 368.386719 254.921875 368.292969 250.1875 Z M 442.910156 219.308594 L 447.847656 219.308594 L 447.847656 264.804688 L 442.910156 264.804688 Z M 492.328125 242.644531 C 492.328125 234.890625 494.03125 228.925781 497.445313 224.753906 C 500.863281 220.589844 505.113281 218.503906 510.207031 218.503906 C 513.492188 218.503906 516.488281 219.4375 519.203125 221.300781 C 521.914063 223.152344 524.0625 225.867188 525.640625 229.414063 C 527.21875 232.964844 528.015625 237.191406 528.015625 242.085938 C 528.015625 248.835938 526.488281 254.332031 523.429688 258.566406 C 520.050781 263.25 515.632813 265.578125 510.175781 265.578125 C 504.667969 265.578125 500.238281 263.183594 496.894531 258.386719 C 493.851563 254.03125 492.328125 248.789063 492.328125 242.644531 Z M 497.421875 242.742188 C 497.421875 248.34375 498.652344 252.703125 501.128906 255.792969 C 503.597656 258.882813 506.605469 260.429688 510.144531 260.429688 C 513.757813 260.429688 516.796875 258.863281 519.253906 255.75 C 521.703125 252.628906 522.929688 248.027344 522.929688 241.96875 C 522.929688 238.058594 522.292969 234.5625 521.035156 231.480469 C 520.058594 229.117188 518.597656 227.230469 516.636719 225.8125 C 514.6875 224.394531 512.550781 223.683594 510.230469 223.683594 C 506.511719 223.683594 503.4375 225.242188 501.035156 228.34375 C 498.621094 231.453125 497.421875 236.246094 497.421875 242.742188 Z M 571.382813 264.804688 L 571.382813 219.308594 L 576.445313 219.308594 L 596.054688 255.027344 L 596.054688 219.308594 L 600.777344 219.308594 L 600.777344 264.804688 L 595.714844 264.804688 L 576.128906 229.054688 L 576.128906 264.804688 Z M 642.3125 264.804688 L 656.65625 219.308594 L 661.964844 219.308594 L 677.226563 264.804688 L 671.582031 264.804688 L 667.238281 251.023438 L 651.65625 251.023438 L 647.558594 264.804688 Z M 653.085938 246.121094 L 665.714844 246.121094 L 661.835938 233.523438 C 660.640625 229.660156 659.761719 226.511719 659.199219 224.089844 C 658.722656 227.011719 658.054688 229.902344 657.175781 232.78125 Z M 718.117188 264.804688 L 718.117188 219.308594 L 723.042969 219.308594 L 723.042969 259.433594 L 741.421875 259.433594 L 741.421875 264.804688 Z M 718.117188 264.804688 "/>
</g>
</g>
</svg>
