<svg xmlns="http://www.w3.org/2000/svg" version="1.1" xmlns:xlink="http://www.w3.org/1999/xlink" xmlns:svgjs="http://svgjs.dev/svgjs" viewBox="0 0 1920 1080" class="overflow-hidden rounded-md drop-shadow-lg transition duration-300" style="overflow: hidden; height: 85vh;"><rect width="1920" height="1080" fill="#000000"/><g clip-path="url(&quot;#SvgjsClipPath1377&quot;)"><g transform="matrix(0.708010696624507,0.9062123666477302,-0.9062123666477302,0.708010696624507,751.446080692368,-655.7475953173223)"><path d="M0,-1080C-10.941486142489055,-978.2047055923367,-56.78877474894376,-692.7029229738937,-65.64891685493433,-469.2282335540202C-74.50905896092489,-245.75354413414678,-85.36314759640811,55.98801371003364,-53.1608526359434,260.8481365192406C-20.958557675478694,465.7082593284475,139.09333726143961,546.497654150251,127.56485290785389,759.9325033012217C116.03636855426817,973.3673524521923,-101.0709499394821,1308.1126486419346,-122.33175875745775,1541.4572314250643C-143.5925675754334,1774.801814208194,-20.38862645957629,2056.9095385708442,0,2160L 1920 2160 L 1920 -1080 Z" fill="url(&quot;#SvgjsLinearGradient1375&quot;)"/><path d="M960,-1080C951.8864819211134,-1023.1841492865876,915.7832817164928,-884.0992493785675,911.3188915266801,-739.1048957195258C906.8545013368674,-594.110542060484,909.2932003134596,-388.03363800052176,933.2136588611243,-210.03387804574953C957.1341174087889,-32.0341180909773,1049.5069278573683,155.41768028183054,1054.841642812668,328.89366400910757C1060.1763577679676,502.3696477363846,976.0089019501949,659.1258443361701,965.221948592922,830.8220243179126C954.4349952356491,1002.518204299655,972.9531962548685,1214.03337703462,990.1199226690305,1359.0707438995623C1007.2866490831925,1504.1081107645048,1073.2422941893992,1567.5580161574937,1068.2223070778941,1701.0462255075668C1063.202319966389,1834.5344348576398,978.037051179649,2083.507704251261,960,2160L 1920 2160 L 1920 -1080 Z" fill="url(&quot;#SvgjsLinearGradient1376&quot;)"/></g></g><defs><linearGradient x1="0.1" y1="0" x2="0" y2="1" id="SvgjsLinearGradient1375"><stop stop-color="#000000" offset="0"/><stop stop-color="#000000" offset="0"/></linearGradient><linearGradient x1="0.1" y1="0" x2="0" y2="1" id="SvgjsLinearGradient1376"><stop stop-color="#808080" offset="0"/><stop stop-color="#808080" offset="0.5"/></linearGradient><clipPath id="SvgjsClipPath1377"><rect width="1920" height="1080"/></clipPath></defs></svg>